<?xml version="1.0" encoding="utf-8"?>
<!-- Generator: Adobe Illustrator 19.2.0, SVG Export Plug-In . SVG Version: 6.00 Build 0)  -->
<svg version="1.1" id="Layer_1" 
	 xmlns="http://www.w3.org/2000/svg" xmlns:xlink="http://www.w3.org/1999/xlink" x="0px" y="0px" viewBox="0 0 825.979 233.525"
	 enable-background="new 0 0 825.979 233.525" xml:space="preserve">

<g>
	<path fill="#00ADEF" d="M184.648,109.877c-0.825,17.99-13.383,42.622-37.676,73.886c-25.118,32.656-46.368,48.986-63.751,48.986
		c-10.765,0-19.881-9.941-27.323-29.834c-4.97-18.232-9.941-36.464-14.911-54.695c-5.528-19.882-11.455-29.834-17.796-29.834
		c-1.382,0-6.219,2.91-14.498,8.705L0,115.89c9.116-8.013,18.11-16.026,26.96-24.051c12.158-10.51,21.287-16.037,27.372-16.595
		c14.377-1.382,23.227,8.449,26.548,29.494c3.588,22.705,6.073,36.827,7.467,42.355c4.146,18.838,8.704,28.246,13.686,28.246
		c3.867,0,9.673-6.111,17.42-18.329c7.733-12.22,11.88-21.517,12.437-27.906c1.104-10.546-3.043-15.832-12.437-15.832
		c-4.425,0-8.983,1.019-13.674,3.031c9.079-29.748,26.426-44.198,52.029-43.374C176.792,73.486,185.739,85.802,184.648,109.877z"/>
	<path fill="#00ADEF" d="M298.67,168.148c-7.746,14.644-18.39,27.906-31.942,39.786c-18.536,16.026-37.058,24.039-55.581,24.039
		c-8.583,0-15.153-2.764-19.711-8.293c-4.558-5.528-6.704-12.703-6.425-21.554c0.266-9.114,3.103-23.213,8.497-42.283
		c5.395-19.068,8.098-29.298,8.098-30.681c0-7.177-2.497-10.777-7.467-10.777c-1.661,0-6.364,2.91-14.11,8.705l-9.54-11.201
		c8.849-8.013,17.698-16.026,26.548-24.051c11.892-10.51,20.741-16.037,26.56-16.595c9.116-0.824,15.82,1.855,20.111,8.062
		c4.279,6.206,5.868,14.256,4.777,24.172c-3.601,16.814-7.48,38.161-11.626,64.053c-0.279,11.856,4.012,17.771,12.862,17.771
		c3.867,0,10.776-4.084,20.741-12.278c8.292-6.813,15.068-13.226,20.329-19.238L298.67,168.148z M262.581,20.632
		c-0.278,6.885-3.733,13.492-10.376,19.821c-7.467,7.152-16.317,10.728-26.548,10.728c-15.759,0-23.372-6.874-22.814-20.633
		c0.266-7.152,4.485-14.037,12.643-20.644C223.645,3.31,232.7,0,242.665,0c5.806,0,10.644,2.279,14.523,6.813
		C261.054,11.359,262.849,15.965,262.581,20.632z"/>
	<path fill="#00ADEF" d="M557.719,168.148c-7.746,14.644-18.39,27.906-31.943,39.786c-18.534,16.026-37.059,24.039-55.58,24.039
		c-17.991,0-26.694-9.941-26.137-29.847c0.267-8.849,2.001-19.48,5.176-31.917c3.177-12.438,4.911-22.112,5.189-29.02
		c0.28-10.499-2.91-15.759-9.577-15.759c-7.212,0-15.807,8.582-25.795,25.722c-10.546,17.978-16.244,35.398-17.069,52.26
		c-0.557,11.904,0.606,21.033,3.492,27.385c-19.298,0.558-32.817-2.63-40.527-9.54c-6.909-6.085-10.074-16.171-9.516-30.282
		c0.266-8.849,1.624-17.698,4.072-26.547c2.437-8.849,3.794-16.729,4.073-23.652c0.558-10.23-3.188-15.346-11.213-15.346
		c-6.934,0-14.413,7.891-22.438,23.65c-8.025,15.759-12.461,32.221-13.286,49.363c-0.558,15.492,0.436,26.269,2.971,32.354
		c-18.984,0.558-32.464-3.444-40.441-12.002c-6.618-7.163-9.636-18.049-9.08-32.669c0.267-7.164,1.527-17.166,3.806-29.991
		c2.279-12.825,3.552-22.814,3.819-29.989c0.545-4.959-0.703-7.444-3.734-7.444c-1.661,0-6.364,2.8-14.11,8.39l-9.952-11.201
		c1.382-1.091,10.085-9.116,26.136-24.051c11.613-10.776,19.492-16.304,23.638-16.583c7.189-0.557,12.996,2.413,17.42,8.91
		c4.424,6.498,6.643,14.037,6.643,22.608c0,2.764-0.279,5.394-0.824,7.88c4.146-6.352,8.983-11.893,14.522-16.596
		c12.717-11.055,26.961-17.287,42.721-18.668c13.552-1.103,23.227,2.073,29.046,9.541c4.691,6.085,6.897,14.802,6.63,26.136
		c1.941-1.648,4.013-3.454,6.232-5.394c6.352-7.467,12.571-13.407,18.656-17.833c10.23-7.467,20.886-11.613,31.941-12.45
		c13.273-1.103,22.814,2.061,28.621,9.504c4.97,6.061,7.188,14.741,6.643,26.027c-0.28,7.721-2.145,18.948-5.601,33.689
		c-3.468,14.74-5.189,23.202-5.189,25.408c-0.278,5.795,0.28,9.784,1.661,11.99c1.383,2.206,4.691,3.296,9.954,3.296
		c3.867,0,10.775-4.084,20.74-12.278c8.293-6.813,15.068-13.226,20.33-19.238L557.719,168.148z"/>
	<path fill="#00ADEF" d="M713.272,167.724c-8.026,13.263-23.783,26.512-47.289,39.762c-29.313,16.849-59.048,25.263-89.184,25.263
		c-22.403,0-38.453-7.468-48.127-22.39c-6.91-10.232-10.232-22.392-9.952-36.501c0.267-22.39,10.232-43.676,29.869-63.873
		c21.566-22.111,47.011-33.179,76.323-33.179c27.105,0,41.481,11.043,43.142,33.106c1.103,14.061-6.643,28.547-23.226,43.447
		c-17.711,16.281-39.98,26.62-66.794,31.032c4.97,6.898,12.436,10.342,22.401,10.342c19.906,0,41.617-5.056,65.133-15.19
		c16.862-7.115,30.138-14.51,39.823-22.172L713.272,167.724z M619.106,124.412c0.267-7.419-2.764-11.141-9.116-11.141
		c-8.291,0-16.705,5.71-25.263,17.129c-8.558,11.419-12.983,22.353-13.25,32.803c-0.157,0-0.157,1.794,0,5.37
		c13.528-4.946,25.263-12.509,35.204-22.693C614.681,137.08,618.826,129.915,619.106,124.412z"/>
	<path fill="#00ADEF" d="M825.879,139.917c-1.114,25.408-10.51,47.362-28.208,65.859c-17.698,18.499-39.689,27.749-65.958,27.749
		c-21.845,0-38.44-7.044-49.775-21.13c-8.291-10.486-12.862-23.602-13.685-39.336c-1.394-23.749,7.176-45.57,25.722-65.45
		c19.906-22.087,44.926-33.13,75.074-33.13c19.348,0,34.004,6.498,43.967,19.469C822.424,105.828,826.704,121.15,825.879,139.917z
		 M779.001,138.353c0.28-7.479-0.763-14.342-3.115-20.573c-2.352-6.231-5.745-9.358-10.159-9.358
		c-14.109,0-25.724,7.625-34.838,22.864c-7.759,12.474-11.906,25.771-12.451,39.894c-0.278,6.934,0.969,13.032,3.733,18.293
		c3.031,6.098,7.322,9.14,12.862,9.14c12.438,0,23.094-7.333,31.943-22.026C774.443,164.391,778.445,151.65,779.001,138.353z"/>
</g>
<g>
</g>
<g>
</g>
<g>
</g>
<g>
</g>
<g>
</g>
<g>
</g>
<g>
</g>
<g>
</g>
<g>
</g>
<g>
</g>
<g>
</g>
<g>
</g>
<g>
</g>
<g>
</g>
<g>
</g>
<g>
</g>
<g>
</g>
<g>
</g>
</svg>
